<svg width="50" height="50" viewBox="0 0 50 50" fill="none" xmlns="http://www.w3.org/2000/svg">
<circle cx="25" cy="25" r="25" fill="#4AA760"/>
<path d="M24.2302 32.7246C24.1772 32.7246 24.1247 32.7137 24.0761 32.6924C24.0275 32.6711 23.9838 32.64 23.9478 32.6011L16.3329 24.364C16.2821 24.309 16.2485 24.2405 16.2361 24.1668C16.2236 24.093 16.233 24.0173 16.2629 23.9487C16.2929 23.8802 16.3422 23.8219 16.4048 23.781C16.4674 23.7401 16.5405 23.7183 16.6153 23.7183H20.2807C20.3357 23.7183 20.3901 23.7301 20.4402 23.7529C20.4903 23.7757 20.5349 23.809 20.571 23.8505L23.1159 26.7784C23.391 26.1905 23.9234 25.2115 24.8577 24.0187C26.2389 22.2552 28.8081 19.6617 33.2036 17.3205C33.2886 17.2753 33.3874 17.2635 33.4806 17.2876C33.5738 17.3117 33.6546 17.3698 33.707 17.4505C33.7594 17.5313 33.7796 17.6287 33.7637 17.7236C33.7478 17.8186 33.6968 17.9041 33.6209 17.9633C33.6042 17.9764 31.9094 19.311 29.9589 21.7556C28.1639 24.0052 25.7776 27.6836 24.6034 32.4325C24.5828 32.5159 24.5348 32.59 24.4672 32.643C24.3995 32.696 24.316 32.7248 24.2301 32.7248L24.2302 32.7246Z" fill="white"/>
</svg>
