<svg width="27" height="53" viewBox="0 0 27 53" fill="none" xmlns="http://www.w3.org/2000/svg">
<path d="M13.0237 53C12.8094 53 12.595 52.8372 12.595 52.566V7.7029C12.595 7.48591 12.7558 7.26892 13.0237 7.26892C13.2381 7.26892 13.4525 7.43166 13.4525 7.7029V52.566C13.3989 52.8372 13.2381 53 13.0237 53Z" fill="#FF9C00"/>
<path d="M16.0792 10.0359C15.436 7.64897 13.8281 5.80454 13.2385 3.58037C13.0777 2.60391 13.2921 1.41045 13.2921 1.41045C13.2921 1.30196 13.3457 1.13922 13.3457 0.976474C13.3457 0.433994 13.1849 0 12.9705 0C12.7561 0 12.5953 0.433994 12.5953 0.976474C12.5953 1.13922 12.5953 1.24771 12.6489 1.41045C12.6489 1.41045 12.9169 2.60391 12.7025 3.58037C12.1129 5.80454 10.505 7.64897 9.86182 10.0359C9.16504 12.6398 9.54023 18.2273 12.8097 18.2273H13.0777C16.3472 18.2273 16.776 12.6398 16.0792 10.0359Z" fill="#FF9C00"/>
<path d="M21.2247 20.9944C22.4038 18.8245 22.5646 16.3833 23.7438 14.3761C24.2798 13.5624 25.2981 12.9115 25.2981 12.9115C25.4053 12.8572 25.5125 12.7487 25.6197 12.6402C25.9949 12.2605 26.2093 11.8265 26.0485 11.718C25.8877 11.5553 25.5125 11.7723 25.1374 12.152C25.0302 12.2605 24.923 12.369 24.8694 12.4775C24.8694 12.4775 24.2262 13.5082 23.4222 14.0507C21.4391 15.2441 19.0272 15.4069 16.8832 16.6003C14.5249 17.9565 10.9338 22.1879 13.2386 24.5205L13.3994 24.6833C15.6505 27.0159 19.8847 23.3813 21.2247 20.9944Z" fill="#FF9C00"/>
<path d="M4.87785 20.9944C3.69869 18.8245 3.5379 16.3833 2.35874 14.3761C1.82276 13.5624 0.804401 12.9115 0.804401 12.9115C0.697204 12.8572 0.590005 12.7487 0.482809 12.6402C0.107622 12.2605 -0.106781 11.8265 0.0540136 11.718C0.214808 11.5553 0.590002 11.7723 0.965189 12.152C1.07238 12.2605 1.17958 12.369 1.23318 12.4775C1.23318 12.4775 1.87636 13.5082 2.68034 14.0507C4.66347 15.2441 7.07537 15.4069 9.2193 16.6003C11.5776 17.9565 15.1687 22.1879 12.864 24.5205L12.7032 24.6833C10.3985 27.0159 6.1642 23.3813 4.87785 20.9944Z" fill="#FF9C00"/>
<path d="M21.2247 31.2464C22.4038 29.0764 22.5646 26.6353 23.7438 24.6281C24.2798 23.8144 25.2981 23.1634 25.2981 23.1634C25.4053 23.1092 25.5125 23.0007 25.6197 22.8922C25.9949 22.5124 26.2093 22.0784 26.0485 21.97C25.8877 21.8072 25.5125 22.0242 25.1374 22.4039C25.0302 22.5124 24.923 22.6209 24.8694 22.7294C24.8694 22.7294 24.2262 23.7601 23.4222 24.3026C21.4391 25.4961 19.0272 25.6588 16.8832 26.8523C14.5249 28.2085 10.9338 32.4398 13.2386 34.7725L13.3994 34.9352C15.6505 37.2679 19.8847 33.579 21.2247 31.2464Z" fill="#FF9C00"/>
<path d="M4.87785 31.2464C3.69869 29.0764 3.5379 26.6353 2.35874 24.6281C1.82276 23.8144 0.804401 23.1634 0.804401 23.1634C0.697204 23.1092 0.590005 23.0007 0.482809 22.8922C0.107622 22.5124 -0.106781 22.0784 0.0540136 21.97C0.214808 21.8072 0.590002 22.0242 0.965189 22.4039C1.07238 22.5124 1.17958 22.6209 1.23318 22.7294C1.23318 22.7294 1.87636 23.7601 2.68034 24.3026C4.66347 25.4961 7.07537 25.6588 9.2193 26.8523C11.5776 28.2085 15.1687 32.4398 12.864 34.7725L12.7032 34.9352C10.3985 37.2679 6.1642 33.579 4.87785 31.2464Z" fill="#FF9C00"/>
<path d="M21.2247 41.4453C22.4038 39.2754 22.5646 36.8343 23.7438 34.8271C24.2798 34.0134 25.2981 33.3624 25.2981 33.3624C25.4053 33.3081 25.5125 33.1996 25.6197 33.0911C25.9949 32.7114 26.2093 32.2774 26.0485 32.1689C25.8877 32.0062 25.5125 32.2232 25.1374 32.6029C25.0302 32.7114 24.923 32.8199 24.8694 32.9284C24.8694 32.9284 24.2262 33.9591 23.4222 34.5016C21.4391 35.695 19.0272 35.8578 16.8832 37.0512C14.5249 38.4074 10.9338 42.6388 13.2386 44.9715L13.3994 45.1342C15.6505 47.4669 19.8847 43.8322 21.2247 41.4453Z" fill="#FF9C00"/>
<path d="M4.87785 41.4453C3.69869 39.2754 3.5379 36.8343 2.35874 34.8271C1.82276 34.0134 0.804401 33.3624 0.804401 33.3624C0.697204 33.3081 0.590005 33.1996 0.482809 33.0911C0.107622 32.7114 -0.106781 32.2774 0.0540136 32.1689C0.214808 32.0062 0.590002 32.2232 0.965189 32.6029C1.07238 32.7114 1.17958 32.8199 1.23318 32.9284C1.23318 32.9284 1.87636 33.9591 2.68034 34.5016C4.66347 35.695 7.07537 35.8578 9.2193 37.0512C11.5776 38.4074 15.1687 42.6388 12.864 44.9715L12.7032 45.1342C10.3985 47.4669 6.1642 43.8322 4.87785 41.4453Z" fill="#FF9C00"/>
</svg>
