<svg width="130" height="130" viewBox="0 0 130 130" fill="none" xmlns="http://www.w3.org/2000/svg">
<mask id="mask0_1857_32921" style="mask-type:alpha" maskUnits="userSpaceOnUse" x="0" y="0" width="130" height="131">
<circle cx="65" cy="65.0063" r="65" fill="#D9D9D9"/>
</mask>
<g mask="url(#mask0_1857_32921)">
<path d="M113.208 77.4838L123.555 80.9381L122.258 84.8177C121.992 85.6125 121.621 86.2298 121.144 86.6697C120.666 87.113 120.122 87.3861 119.511 87.4891C118.902 87.5965 118.269 87.5407 117.612 87.3214C116.948 87.0999 116.406 86.7633 115.984 86.3118C115.562 85.8602 115.294 85.3122 115.18 84.6677C115.07 84.0243 115.148 83.3035 115.415 82.5053L116.275 79.9341L117.816 80.4485L117.04 82.7672C116.885 83.2319 116.838 83.6395 116.901 83.9898C116.964 84.3401 117.113 84.6332 117.348 84.8691C117.583 85.1084 117.884 85.2893 118.251 85.4119C118.618 85.5345 118.965 85.57 119.294 85.5185C119.62 85.4704 119.911 85.3223 120.167 85.0743C120.424 84.8308 120.631 84.475 120.788 84.0069L121.362 82.2893L112.581 79.3579L113.208 77.4838Z" fill="#4AA760"/>
<path d="M109.877 86.6174L119.415 91.9137L118.454 93.6407L110.365 89.1486L108.029 93.3474L106.581 92.5431L109.877 86.6174Z" fill="#4AA760"/>
<path d="M104.891 94.8572L106.237 93.2336L112.187 103.148L110.63 105.026L99.7725 101.027L101.119 99.4039L109.658 102.693L109.712 102.627L104.891 94.8572ZM108.141 97.6388L104.468 102.067L103.245 101.054L106.918 96.6263L108.141 97.6388Z" fill="#4AA760"/>
<path d="M107.307 108.767L105.591 110.194L100.451 108.191L100.369 108.259L101.405 113.674L99.6885 115.101L98.3642 107.308L95.7605 104.18L97.276 102.92L99.8797 106.048L107.307 108.767Z" fill="#4AA760"/>
<path d="M87.9303 119.611L88.4583 121.181L80.2079 123.954L79.6798 122.383L82.876 121.309L79.9266 112.54L81.7847 111.915L84.7341 120.685L87.9303 119.611Z" fill="#4AA760"/>
<path d="M76.4306 113.699L77.9474 124.502L75.9904 124.777L75.3482 120.204L70.3423 120.907L70.9845 125.48L69.0222 125.755L67.5053 114.952L69.4676 114.677L70.112 119.266L75.1179 118.563L74.4735 113.974L76.4306 113.699Z" fill="#4AA760"/>
<path d="M66.3273 114.914L65.8318 125.811L58.7438 125.491L58.8191 123.836L63.9328 124.067L64.0674 121.109L59.3208 120.894L59.396 119.239L64.1426 119.454L64.2778 116.479L59.1215 116.246L59.1968 114.591L66.3273 114.914Z" fill="#4AA760"/>
<path d="M43.1509 121.656L44.0161 112.655L43.9137 112.61L37.8561 119.326L35.8669 118.45L43.7877 110.017L46.0207 111L45.1352 122.529L43.1509 121.656Z" fill="#4AA760"/>
<path d="M30.1911 114.632L36.3514 105.629L37.9832 106.743L31.8229 115.747L30.1911 114.632Z" fill="#4AA760"/>
<path d="M30.4198 100.647L33.0371 103.257L25.3275 110.976L22.6574 108.312C21.8906 107.547 21.3862 106.736 21.1443 105.878C20.8973 105.019 20.9129 104.155 21.1909 103.283C21.4689 102.412 22.0082 101.576 22.8088 100.774C23.6119 99.9702 24.4516 99.4285 25.3281 99.1491C26.2019 98.8672 27.0736 98.8513 27.9429 99.1015C28.8098 99.3492 29.6354 99.8643 30.4198 100.647ZM30.4296 103.072L29.2793 101.924C28.7413 101.388 28.1946 101.038 27.6393 100.875C27.0815 100.715 26.5164 100.741 25.9439 100.952C25.3688 101.166 24.7864 101.568 24.1967 102.159C23.6069 102.749 23.208 103.329 23 103.899C22.7896 104.472 22.765 105.031 22.9262 105.578C23.0824 106.126 23.422 106.66 23.945 107.182L25.1367 108.37L30.4296 103.072Z" fill="#4AA760"/>
<path d="M26.2736 96.227L17.2774 102.398L13.2607 96.549L14.6268 95.612L17.5247 99.8316L19.9671 98.1564L17.2772 94.2397L18.6433 93.3027L21.3332 97.2193L23.7887 95.5351L20.8666 91.2803L22.2327 90.3432L26.2736 96.227Z" fill="#4AA760"/>
<path d="M12.835 83.0145C13.9099 82.5389 14.9198 82.333 15.8645 82.3965C16.8045 82.4583 17.6307 82.7452 18.3429 83.2572C19.0537 83.766 19.6025 84.4571 19.9893 85.3305C20.3761 86.2039 20.5197 87.0762 20.4201 87.9474C20.3157 88.8168 19.9711 89.6216 19.3863 90.3619C18.7967 91.1003 17.9661 91.7066 16.8944 92.1807C15.8195 92.6562 14.812 92.8631 13.8719 92.8013C12.9272 92.7378 12.0994 92.4516 11.3886 91.9428C10.6764 91.4308 10.1269 90.7381 9.74007 89.8647C9.35326 88.9912 9.21039 88.1205 9.31149 87.2526C9.41114 86.3814 9.75574 85.5766 10.3453 84.8382C10.9302 84.0979 11.7601 83.49 12.835 83.0145ZM13.6395 84.8312C12.8829 85.1659 12.2972 85.5667 11.8826 86.0336C11.4632 86.4987 11.2125 86.998 11.1302 87.5314C11.0447 88.0662 11.1221 88.6048 11.3622 89.147C11.6024 89.6893 11.9492 90.1086 12.4028 90.4049C12.8532 90.7027 13.3923 90.8545 14.0201 90.8602C14.6433 90.8642 15.3332 90.6987 16.0899 90.364C16.8465 90.0292 17.4345 89.6293 17.8538 89.1642C18.2685 88.6973 18.5185 88.1965 18.604 87.6616C18.6863 87.1282 18.6073 86.5904 18.3672 86.0481C18.127 85.5059 17.7818 85.0858 17.3314 84.788C16.8778 84.4917 16.3394 84.3415 15.7163 84.3376C15.0885 84.3319 14.3962 84.4964 13.6395 84.8312Z" fill="#4AA760"/>
<path d="M10.229 65.5093L11.8146 65.4344L12.0454 70.3402L10.4598 70.4151L10.229 65.5093Z" fill="#4AA760"/>
<path d="M16.9869 53.2711L6.63901 49.8171L7.93682 45.9375C8.20269 45.1427 8.57396 44.5254 9.05064 44.0855C9.52844 43.6422 10.0729 43.3691 10.684 43.2661C11.2929 43.1586 11.9258 43.2145 12.5826 43.4337C13.2462 43.6552 13.7889 43.9917 14.2108 44.4433C14.6326 44.8948 14.9005 45.4429 15.0145 46.0874C15.125 46.7308 15.0468 47.4515 14.7798 48.2497L13.9196 50.8209L12.3786 50.3065L13.1542 47.9879C13.3097 47.5231 13.3562 47.1156 13.2936 46.7653C13.2311 46.4149 13.082 46.1218 12.8463 45.8859C12.6118 45.6467 12.311 45.4658 11.9438 45.3432C11.5767 45.2207 11.2291 45.1851 10.9011 45.2366C10.5742 45.2847 10.2831 45.4328 10.0279 45.6808C9.77044 45.9243 9.56342 46.2801 9.40682 46.7482L8.83227 48.4658L17.6138 51.397L16.9869 53.2711Z" fill="#4AA760"/>
<path d="M20.3164 44.1382L10.7793 38.8419L11.74 37.1149L19.8288 41.607L22.1645 37.4082L23.6128 38.2125L20.3164 44.1382Z" fill="#4AA760"/>
<path d="M25.3027 35.8985L23.956 37.522L18.0063 27.6075L19.5639 25.7298L30.4208 29.7282L29.0741 31.3518L20.5353 28.0629L20.4809 28.1285L25.3027 35.8985ZM22.0527 33.1168L25.7255 28.689L26.948 29.7015L23.2752 34.1294L22.0527 33.1168Z" fill="#4AA760"/>
<path d="M22.8867 21.9881L24.6029 20.5612L29.7427 22.5642L29.8246 22.4961L28.7891 17.081L30.5053 15.6542L31.8296 23.4476L34.4334 26.5752L32.9178 27.8352L30.3141 24.7076L22.8867 21.9881Z" fill="#4AA760"/>
<path d="M42.5202 11.0579L41.9921 9.48774L50.2426 6.71526L50.7707 8.28544L47.5745 9.35948L50.5239 18.1293L48.6658 18.7537L45.7164 9.98389L42.5202 11.0579Z" fill="#4AA760"/>
<path d="M53.7633 17.056L52.2465 6.25285L54.2035 5.97802L54.8456 10.5514L59.8515 9.84842L59.2094 5.27503L61.1717 4.99946L62.6885 15.8026L60.7262 16.0782L60.0819 11.4889L55.0759 12.1919L55.7203 16.7811L53.7633 17.056Z" fill="#4AA760"/>
<path d="M63.8666 15.8419L64.3621 4.94407L71.45 5.26428L71.3748 6.91917L66.261 6.68815L66.1265 9.64674L70.8731 9.86118L70.7978 11.5161L66.0512 11.3016L65.916 14.2762L71.0723 14.5091L70.9971 16.164L63.8666 15.8419Z" fill="#4AA760"/>
<path d="M87.0435 9.09929L86.1783 18.0998L86.2806 18.1449L92.3383 11.4293L94.3275 12.3047L86.4066 20.7377L84.1736 19.7551L85.0591 8.22607L87.0435 9.09929Z" fill="#4AA760"/>
<path d="M100.002 16.1236L93.842 25.1269L92.2102 24.0121L98.3705 15.0089L100.002 16.1236Z" fill="#4AA760"/>
<path d="M99.7735 30.1088L97.1562 27.4981L104.866 19.7799L107.536 22.4433C108.303 23.2082 108.807 24.0197 109.049 24.878C109.296 25.7362 109.28 26.601 109.002 27.4723C108.724 28.3435 108.185 29.1799 107.385 29.9814C106.581 30.7853 105.742 31.327 104.865 31.6065C103.991 31.8884 103.12 31.9042 102.25 31.654C101.384 31.4063 100.558 30.8912 99.7735 30.1088ZM99.7638 27.684L100.914 28.8313C101.452 29.368 101.999 29.7177 102.554 29.8803C103.112 30.0405 103.677 30.0149 104.25 29.8035C104.825 29.5896 105.407 29.1875 105.997 28.597C106.586 28.0066 106.985 27.4264 107.193 26.8564C107.404 26.2839 107.428 25.7241 107.267 25.1771C107.111 24.63 106.771 24.0956 106.248 23.574L105.057 22.3853L99.7638 27.684Z" fill="#4AA760"/>
<path d="M103.92 34.528L112.916 28.3573L116.933 34.206L115.567 35.1431L112.669 30.9234L110.227 32.5987L112.917 36.5154L111.551 37.4524L108.861 33.5357L106.405 35.22L109.327 39.4748L107.961 40.4119L103.92 34.528Z" fill="#4AA760"/>
<path d="M117.359 47.7407C116.284 48.2163 115.275 48.4223 114.33 48.3587C113.39 48.297 112.564 48.0101 111.851 47.4981C111.141 46.9893 110.592 46.2982 110.205 45.4248C109.818 44.5513 109.675 43.679 109.774 42.8078C109.879 41.9384 110.223 41.1336 110.808 40.3933C111.398 39.6549 112.228 39.0486 113.3 38.5745C114.375 38.0989 115.382 37.892 116.322 37.9538C117.267 38.0173 118.095 38.3035 118.806 38.8123C119.518 39.3243 120.067 40.017 120.454 40.8904C120.841 41.7639 120.984 42.6346 120.883 43.5025C120.783 44.3737 120.439 45.1786 119.849 45.917C119.264 46.6573 118.434 47.2652 117.359 47.7407ZM116.555 45.924C117.311 45.5893 117.897 45.1884 118.312 44.7215C118.731 44.2564 118.982 43.7572 119.064 43.2238C119.15 42.6889 119.072 42.1503 118.832 41.6081C118.592 41.0658 118.245 40.6465 117.791 40.3502C117.341 40.0524 116.802 39.9006 116.174 39.8949C115.551 39.891 114.861 40.0564 114.105 40.3912C113.348 40.7259 112.76 41.1259 112.341 41.591C111.926 42.0579 111.676 42.5587 111.59 43.0936C111.508 43.627 111.587 44.1649 111.827 44.7071C112.067 45.2494 112.413 45.6694 112.863 45.9672C113.317 46.2636 113.855 46.4137 114.478 46.4176C115.106 46.4233 115.798 46.2588 116.555 45.924Z" fill="#4AA760"/>
<path d="M119.965 65.2456L118.379 65.3205L118.148 60.4147L119.734 60.3399L119.965 65.2456Z" fill="#4AA760"/>
</g>
</svg>
