<svg width="800" height="380" viewBox="0 0 800 380" fill="none" xmlns="http://www.w3.org/2000/svg">
<path d="M542.842 186.045C533.393 176.421 528.012 163.195 528.012 149.57C528.012 148.373 528.062 147.177 528.138 145.98C524.159 146.996 520.053 147.524 515.91 147.524C502.532 147.524 489.559 142.043 480.097 132.419C470.648 122.795 465.266 109.569 465.266 95.944C465.266 93.7697 465.405 91.6082 465.671 89.4596C454.668 87.9928 444.309 82.8464 436.401 74.7923C433.18 71.5115 430.426 67.8061 428.203 63.8047C419.966 62.4409 411.503 61.7204 402.887 61.7204C316.595 61.7204 246.637 132.972 246.637 220.86C246.637 308.748 316.595 380 402.887 380C489.18 380 559.138 308.748 559.138 220.86C559.138 212.51 558.506 204.315 557.294 196.312C551.963 193.79 547.049 190.329 542.842 186.045ZM402.887 293.142C363.689 293.142 331.918 260.783 331.918 220.86C331.918 180.937 363.689 148.579 402.887 148.579C442.086 148.579 473.856 180.937 473.856 220.86C473.856 260.783 442.086 293.142 402.887 293.142Z" fill="#FF9D2D"/>
<path d="M438.258 331.071C351.966 331.071 282.008 259.818 282.008 171.931C282.008 147.575 287.389 124.494 296.99 103.844C266.028 132.921 246.637 174.581 246.637 220.86C246.637 308.748 316.595 380 402.887 380C465.266 380 519.093 342.779 544.156 288.947C516.314 315.091 479.124 331.071 438.258 331.071Z" fill="#FF9D2D"/>
<path d="M541.618 244.379C538.99 230.947 534.632 217.759 534.215 203.954C533.962 195.746 535.845 187.769 536.577 179.689C531.941 171.763 529.415 162.616 529.415 153.275C529.415 151.062 529.554 148.862 529.832 146.688C529.554 146.405 529.276 146.121 528.973 145.826C525.17 146.752 521.254 147.228 517.313 147.228C503.935 147.228 490.962 141.747 481.5 132.123C472.051 122.499 466.669 109.273 466.669 95.6481C466.669 93.6925 466.783 91.7626 466.998 89.8327C466.025 89.4081 465.09 88.9578 464.193 88.4946C452.597 87.3238 441.607 82.0744 433.32 73.6343C431.665 71.9489 430.136 70.1477 428.747 68.2692C425.513 67.4072 421.862 66.6996 417.668 66.1978C409.558 65.2328 402.775 65.9276 395.182 69.6587C385.026 74.6508 375.691 83.5798 365.875 87.9671C339.41 99.791 331.085 91.1965 307.311 108.154C283.676 125.021 292.809 154.034 278.004 177.502C263.818 199.979 248.558 216.949 261.809 243.929C267.885 256.319 274.77 267.873 278.951 281.163C283.234 294.763 284.813 309.559 291.142 322.425C306.402 353.444 345.006 348.208 373.518 350.357C389.675 351.579 404.973 355.284 420.51 359.71C432.132 363.017 445.371 367.378 457.17 362.451C468.792 357.587 475.297 345.313 481.753 335.11C489.383 323.042 497.606 312.17 509.001 303.537C518.627 296.242 531.044 290.838 538.118 280.584C545.546 269.841 544.005 256.563 541.618 244.379ZM448.466 267.873C436.137 280.43 419.197 287.583 401.751 287.583C384.306 287.583 367.366 280.443 355.037 267.873C342.707 255.315 335.684 238.062 335.684 220.294C335.684 202.513 342.695 185.273 355.037 172.716C367.366 160.158 384.306 153.005 401.751 153.005C419.197 153.005 436.137 160.145 448.466 172.716C460.795 185.273 467.819 202.526 467.819 220.294C467.819 238.062 460.808 255.303 448.466 267.873Z" fill="#8E521C"/>
<path d="M430.124 359.736C414.573 355.31 399.275 351.605 383.131 350.382C354.62 348.234 316.015 353.457 300.755 322.45C294.426 309.584 292.847 294.788 288.565 281.189C284.371 267.911 277.499 256.345 271.422 243.955C258.184 216.975 273.444 200.004 287.617 177.527C302.422 154.06 293.302 125.034 316.924 108.18C340.686 91.2221 349.023 99.8167 375.488 87.9928C385.291 83.6055 394.639 74.6893 404.796 69.6844C408.838 67.7031 412.64 66.5709 416.544 66.0948C408.927 65.3228 402.433 66.1205 395.182 69.6844C385.026 74.6764 375.691 83.6055 365.875 87.9928C339.41 99.8167 331.085 91.2221 307.311 108.18C283.676 125.047 292.809 154.06 278.004 177.527C263.818 200.004 248.558 216.975 261.809 243.955C267.885 256.345 274.77 267.898 278.951 281.189C283.234 294.788 284.813 309.584 291.142 322.45C306.402 353.47 345.006 348.234 373.518 350.382C389.675 351.605 404.973 355.31 420.51 359.736C429.808 362.386 440.154 365.706 449.969 364.393C443.198 363.621 436.427 361.524 430.124 359.736Z" fill="#773F11"/>
<path opacity="0.3" d="M438.258 331.071C351.966 331.071 282.008 259.818 282.008 171.931C282.008 147.575 287.389 124.494 296.99 103.844C266.028 132.921 246.637 174.581 246.637 220.86C246.637 308.748 316.595 380 402.887 380C465.266 380 519.093 342.779 544.156 288.947C516.314 315.091 479.124 331.071 438.258 331.071Z" fill="#FF9D2D"/>
<path d="M411.744 286.786C420.056 285.512 427.851 282.656 434.836 278.513C427.724 282.694 419.879 285.512 411.744 286.786Z" fill="white"/>
<path d="M406.389 282.27C370.032 282.27 340.561 252.253 340.561 215.225C340.561 198.731 346.41 183.626 356.111 171.944C343.441 184.166 335.533 201.458 335.533 220.629C335.533 257.657 365.005 287.673 401.361 287.673C421.51 287.673 439.549 278.448 451.625 263.923C439.839 275.296 423.91 282.27 406.389 282.27Z" fill="#FF9D2D"/>
<path d="M556.879 193.739C541.619 185.685 531.198 169.448 531.198 150.74C531.198 148.746 531.311 146.778 531.551 144.848C531.665 143.921 531.804 143.008 531.968 142.094C530.806 142.455 529.631 142.776 528.431 143.059C525.046 143.831 521.534 144.243 517.921 144.243C491.671 144.243 470.398 122.577 470.398 95.8411C470.398 93.8983 470.511 91.9942 470.726 90.1029C470.89 88.6619 471.13 87.2337 471.408 85.8314C470.372 85.7542 469.362 85.6384 468.351 85.484C455.075 83.5541 443.554 76.0275 436.189 65.3229C433.7 64.7697 431.187 64.2808 428.66 63.8562C436.012 78.3819 450.388 88.6233 467.202 89.9485C466.532 93.1778 466.178 96.523 466.178 99.9582C466.178 126.694 487.452 148.36 513.702 148.36C518.59 148.36 523.302 147.601 527.736 146.212C527.244 149.016 526.978 151.898 526.978 154.858C526.978 175.61 539.8 193.314 557.814 200.185C557.562 198.036 557.233 195.887 556.879 193.739Z" fill="#DB945E"/>
<path d="M414.485 49.3304C419.879 47.2719 423.037 38.42 419.816 34.393C418.136 32.2829 412.779 31.1893 410.089 32.1929C406.804 33.4152 407.221 36.7475 406.842 40.2727C406.829 40.2727 405.92 52.5984 414.485 49.3304Z" fill="#FF9D2D"/>
<path d="M611.539 160.043C609.467 158.795 606.473 160.223 604.629 161.998C602.292 164.237 602.57 168.598 604.541 170.49C608.053 173.873 618.702 166.823 613.876 162.834C613.295 162.346 612.31 160.519 611.539 160.043Z" fill="#512809"/>
<path d="M554.781 143.947C553.518 146.199 553.265 149.338 555.009 151.487C556.184 152.928 560.719 154.42 562.361 153.352C569.081 148.991 558.874 142.982 556.133 143.021C555.716 143.034 554.983 143.587 554.781 143.947Z" fill="#8E521C"/>
<path d="M514.243 35.3451C509.519 40.9161 507.232 49.6778 511.868 54.8242C520.951 64.8983 531.979 23.354 520.016 31.9999C519.246 32.5532 514.862 34.6246 514.243 35.3451Z" fill="#8E521C"/>
<path d="M360.317 3.32155C359.357 6.46086 359.256 10.3593 361.732 12.5336C363.816 14.3606 367.493 14.6179 370.019 13.2027C373.556 11.2213 375.855 6.8983 373.303 2.76831C371.181 -0.666916 365.13 -0.602583 361.618 1.31445C361.101 1.61037 360.494 2.75545 360.317 3.32155Z" fill="#512809"/>
<path d="M571.746 219.188C573.565 221.851 574.93 228.323 577.961 225.569C580.778 223.009 578.795 219.316 576.193 217.116C574.096 215.354 567.982 214.324 570.395 218.274C570.609 218.622 571.506 218.853 571.746 219.188Z" fill="#FF9D2D"/>
<g opacity="0.5">
<path d="M400.109 123.374C349.086 123.374 307.74 165.498 307.74 217.451C307.74 269.417 349.099 311.54 400.109 311.54C451.131 311.54 492.49 269.417 492.49 217.451C492.49 165.498 451.131 123.374 400.109 123.374ZM402.774 290.079C365.167 290.079 334.673 259.021 334.673 220.719C334.673 182.417 365.167 151.358 402.774 151.358C440.381 151.358 470.876 182.417 470.876 220.719C470.876 259.034 440.393 290.079 402.774 290.079Z" fill="#AF6425"/>
</g>
<path d="M370.725 160.416C377.369 156.955 384.582 154.639 392.023 153.61C400.31 146.366 408.761 139.303 417.401 132.689C420.32 130.464 432.245 122.602 444.46 116.401C457.004 110.032 463.775 108.424 467.274 108.205C466.542 105.233 466.062 102.184 465.86 99.1091C463.914 99.3021 461.779 99.7138 459.442 100.357C454.2 101.811 447.808 104.436 440.443 108.18C427.962 114.51 415.557 122.615 411.995 125.343C397.695 136.292 384.001 148.373 370.725 160.416Z" fill="#3A1B07"/>
<path d="M345.802 183.06C339.372 188.824 332.866 194.549 326.31 200.043C321.308 204.237 315.029 210.619 308.372 217.374C299.845 226.032 290.181 235.849 281.263 243.067C269.628 252.472 263.565 253.913 260.533 253.463C259.421 253.295 257.817 252.781 256.301 250.311C250.831 213.835 270.146 183.549 287.39 164.507C304.86 145.208 327.359 125.716 356.148 104.925C364.448 98.929 367.82 98.8132 372.494 98.6588C377.042 98.5044 382.701 98.3114 392.618 93.1393C402.016 88.2373 424.136 83.271 434.646 82.1517C436.503 81.9587 437.968 80.6335 438.486 78.9352C436.339 77.3526 434.305 75.59 432.41 73.6601C432.271 73.5186 432.132 73.377 431.993 73.2227C419.879 74.7537 398.631 79.6943 388.512 84.9693C380.39 89.2151 376.41 89.3438 372.204 89.4853C366.924 89.6654 361.454 89.8456 350.943 97.4365C321.636 118.614 298.683 138.518 280.77 158.28C268.39 171.944 259.181 186.431 253.408 201.342C246.802 218.377 244.831 235.618 247.547 252.601C247.623 253.115 247.8 253.604 248.04 254.055C251.311 260.179 255.947 262.044 259.257 262.533C260.015 262.649 260.798 262.701 261.594 262.701C268.327 262.701 276.45 258.686 286.884 250.233C296.207 242.694 306.06 232.684 314.752 223.858C321.245 217.258 327.384 211.031 332.045 207.119C333.713 205.73 335.368 204.315 337.023 202.899C338.879 195.862 341.848 189.145 345.802 183.06Z" fill="#3A1B07"/>
<path d="M443.032 168.534C449.26 162.281 455.918 155.411 461.83 148.116C467.982 140.525 472.592 133.371 475.776 126.449C473.489 123.323 471.569 119.939 470.041 116.388C470.041 116.401 470.028 116.414 470.028 116.427C464.444 133.59 448.919 149.775 435.617 163.092C438.194 164.726 440.67 166.54 443.032 168.534Z" fill="#3A1B07"/>
<path d="M523.312 304.965C512.233 311.836 502.62 320.533 493.322 328.935C480.879 340.18 469.119 350.794 454.137 357.484C440.329 363.647 423.869 367.378 420.345 361.023C418.298 357.343 422.328 351.566 426.055 347.385C431.512 341.247 439.066 335.406 444.069 331.546C445.534 330.414 446.81 329.436 447.757 328.652C451.85 325.268 456.069 321.871 460.137 318.578C477.203 304.772 494.851 290.504 509.985 273.701C515.113 268.014 522.845 259.432 528.895 250.079C536.323 238.589 539.557 228.618 538.812 219.574C538.206 212.24 534.795 208.895 532.041 207.389C526.167 204.173 517.551 205.82 505.715 212.433C490.695 220.809 476.761 231.487 463.308 242.102C460.87 249.345 457.219 256.164 452.507 262.199C456.461 259.137 460.377 256.036 464.23 252.987C478.833 241.42 493.929 229.455 510.048 220.474C522.402 213.591 526.748 214.903 527.796 215.469C528.946 216.1 529.641 217.734 529.856 220.333C531.195 236.608 513.092 256.692 503.365 267.487C488.699 283.762 471.342 297.799 454.541 311.385C450.448 314.692 446.229 318.114 442.098 321.511C441.252 322.206 440.039 323.145 438.624 324.239C433.356 328.304 425.398 334.454 419.372 341.222C415.797 345.236 413.397 348.903 412.045 352.415C409.734 358.411 411.009 362.862 412.5 365.538C414.003 368.24 417.098 371.727 423.301 373.001C424.943 373.335 426.75 373.503 428.695 373.503C431.032 373.503 433.571 373.258 436.3 372.782C444.89 371.277 453.417 367.816 457.737 365.886C474.02 358.617 486.867 347.011 499.285 335.792C508.292 327.661 517.602 319.247 527.986 312.801C530.108 311.488 530.778 308.658 529.489 306.496C528.201 304.335 525.434 303.64 523.312 304.965Z" fill="#3A1B07"/>
<path d="M400.817 287.571C400.729 287.571 400.627 287.571 400.539 287.571C387.591 295.586 374.087 302.701 359.951 307.873C347.028 312.608 329.153 317.806 323.216 308.285C318.049 300.012 321.536 287.944 333.562 272.414C337.389 267.487 341.748 262.636 346.182 258.095C344.438 255.47 342.872 252.729 341.508 249.886C336.29 255.135 331.048 260.848 326.5 266.74C320.058 275.052 315.7 282.772 313.539 289.706C310.76 298.635 311.455 306.548 315.611 313.213C318.138 317.265 321.852 320.07 326.627 321.55C330.366 322.708 334.812 323.042 339.853 322.54C347.9 321.743 356.06 319.041 362.995 316.506C384.572 308.594 404.493 296.525 423.24 283.543C416.115 286.181 408.523 287.571 400.817 287.571Z" fill="#3A1B07"/>
<path d="M361.074 166.45C360.822 166.681 360.569 166.913 360.316 167.145C368.477 160.712 378.04 156.299 388.146 154.266C397.671 145.838 407.41 137.578 417.402 129.936C420.321 127.697 432.246 119.849 444.461 113.648C456.323 107.626 463.031 105.851 466.682 105.503C466.1 102.506 465.785 99.4564 465.747 96.3686C463.839 96.5616 461.742 96.9733 459.443 97.6037C454.201 99.0576 447.809 101.682 440.444 105.426C427.963 111.756 415.558 119.862 411.996 122.59C394.209 136.215 377.358 151.577 361.074 166.45Z" fill="#512809"/>
<path d="M353.393 173.449C344.525 181.503 335.468 189.621 326.309 197.29C321.307 201.484 315.029 207.866 308.371 214.62C299.844 223.279 290.18 233.096 281.262 240.314C269.628 249.719 263.564 251.16 260.532 250.709C259.421 250.542 257.816 250.027 256.3 247.557C250.83 211.082 270.145 180.795 287.389 161.754C304.859 142.455 327.358 122.976 356.147 102.171C364.447 96.1756 367.819 96.0598 372.493 95.9054C377.041 95.751 382.701 95.558 392.617 90.3859C402.016 85.4839 424.135 80.5176 434.645 79.3983C435.719 79.2825 436.654 78.7936 437.361 78.0731C435.618 76.7222 433.963 75.2426 432.409 73.6601C431.5 72.7337 430.628 71.7688 429.794 70.7781C417.452 72.5922 398.049 77.2497 388.524 82.2288C380.401 86.4746 376.422 86.6033 372.216 86.7448C366.935 86.9249 361.465 87.105 350.955 94.696C321.648 115.873 298.695 135.777 280.782 155.539C268.402 169.203 259.193 183.703 253.42 198.602C246.813 215.637 244.843 232.877 247.559 249.86C247.634 250.375 247.811 250.864 248.051 251.314C251.323 257.438 255.959 259.304 259.269 259.793C260.027 259.909 260.81 259.96 261.606 259.96C268.339 259.96 276.462 255.946 286.896 247.493C296.219 239.953 306.072 229.944 314.763 221.118C321.256 214.517 327.396 208.29 332.057 204.366C334.078 202.668 336.099 200.944 338.108 199.22C341.203 189.634 346.42 180.783 353.393 173.449Z" fill="#512809"/>
<path d="M441.519 167.286C448.163 160.634 455.44 153.236 461.819 145.35C467.491 138.35 471.837 131.737 474.982 125.343C472.784 122.152 470.952 118.73 469.512 115.14C463.284 132.496 447.178 148.785 433.889 162.05C436.541 163.619 439.093 165.369 441.519 167.286Z" fill="#512809"/>
<path d="M400.817 287.571C399.301 287.571 397.785 287.519 396.282 287.403C384.635 294.351 372.546 300.501 359.964 305.12C347.041 309.854 329.166 315.052 323.228 305.531C318.062 297.246 321.548 285.19 333.574 269.661C337.086 265.119 341.065 260.668 345.12 256.435C343.428 253.733 341.937 250.915 340.649 247.995C335.709 253 330.808 258.416 326.5 263.961C320.058 272.273 315.7 279.992 313.539 286.94C310.76 295.869 311.455 303.782 315.611 310.446C318.138 314.499 321.852 317.304 326.627 318.783C330.366 319.941 334.812 320.276 339.853 319.774C347.9 318.976 356.06 316.275 362.995 313.74C381.78 306.857 399.326 296.808 415.925 285.756C411.011 286.953 405.946 287.571 400.817 287.571Z" fill="#512809"/>
<path d="M523.312 302.212C512.233 309.083 502.62 317.78 493.322 326.181C480.879 337.426 469.119 348.041 454.137 354.731C440.329 360.894 423.869 364.625 420.345 358.269C418.298 354.59 422.328 348.813 426.055 344.618C431.512 338.481 439.066 332.64 444.069 328.78C445.534 327.648 446.81 326.67 447.757 325.873C451.85 322.489 456.069 319.092 460.137 315.799C477.203 301.993 494.851 287.725 509.985 270.922C515.113 265.235 522.845 256.653 528.895 247.3C536.323 235.811 539.557 225.839 538.812 216.807C538.206 209.474 534.795 206.141 532.041 204.623C526.167 201.407 517.551 203.054 505.715 209.667C491.099 217.811 477.519 228.129 464.419 238.461C462.689 244.701 460.087 250.684 456.701 256.177C459.24 254.183 461.754 252.202 464.23 250.233C478.833 238.667 493.929 226.701 510.048 217.721C522.402 210.838 526.748 212.15 527.796 212.716C528.946 213.346 529.641 214.98 529.856 217.579C531.195 233.855 513.092 253.939 503.365 264.733C488.699 280.996 471.342 295.046 454.541 308.632C450.448 311.939 446.229 315.361 442.098 318.758C441.252 319.452 440.039 320.392 438.624 321.485C433.356 325.551 425.398 331.701 419.372 338.468C415.797 342.483 413.397 346.15 412.045 349.662C409.734 355.658 411.009 360.109 412.5 362.785C414.003 365.487 417.098 368.974 423.301 370.248C424.943 370.582 426.75 370.749 428.695 370.749C431.032 370.749 433.571 370.505 436.3 370.029C444.89 368.523 453.417 365.063 457.737 363.133C474.02 355.863 486.867 344.258 499.285 333.039C508.292 324.908 517.602 316.493 527.986 310.047C530.108 308.735 530.778 305.905 529.489 303.743C528.201 301.582 525.434 300.887 523.312 302.212Z" fill="#512809"/>
<path d="M187.516 254.672C182.021 252.138 174.719 250.902 165.839 250.902H161.215V123.67C161.215 96.8704 146.183 91.248 133.323 91.248C127.36 91.248 122.32 93.3194 118.063 97.3979C114.21 101.09 109.536 106.816 103.649 114.883L16.119 234.202C13.6936 237.457 11.6724 240.211 10.0175 242.462C8.32478 244.765 6.68256 247.171 5.11613 249.616C3.44865 252.228 2.17279 254.762 1.33905 257.168C0.454774 259.69 0 262.225 0 264.708C0 273.894 2.98125 281.24 8.86797 286.657C14.6536 291.996 23.2816 294.647 34.4866 294.647H114.5V322.939C114.5 332.113 116.623 339.24 120.918 344.13C125.314 349.122 131.087 351.656 138.136 351.656C145.286 351.656 150.806 349.186 155.139 344.31C159.396 339.524 161.241 332.331 161.241 322.939V294.647H168.845C177.953 294.647 184.686 293.064 189.449 289.681C194.489 286.104 197.041 280.507 197.041 272.942C197.016 263.678 193.82 257.567 187.516 254.672ZM114.475 250.902H52.4752L114.475 165.652V250.902Z" fill="#EB0029"/>
<path d="M790.487 250.709C784.992 248.175 777.69 247.043 768.809 247.043H765.045V119.605C765.045 92.8048 749.583 87.1823 736.723 87.1823C730.76 87.1823 725.505 89.2537 721.248 93.3323C717.395 97.0248 712.62 102.75 706.734 110.817L619.14 230.137C616.715 233.392 614.668 236.145 613.013 238.397C611.321 240.7 609.666 243.106 608.099 245.55C606.432 248.162 605.156 250.697 604.31 253.102C603.425 255.624 602.971 258.159 602.971 260.642C602.971 269.828 605.952 277.278 611.839 282.694C617.624 288.034 626.24 290.774 637.445 290.774H717.054V318.874C717.054 328.047 719.379 335.175 723.674 340.064C728.07 345.056 733.944 347.591 740.993 347.591C748.143 347.591 754.143 345.12 758.476 340.244C762.733 335.458 765.058 328.266 765.058 318.874V290.787H771.803C780.911 290.787 787.644 289.102 792.407 285.731C797.447 282.154 799.999 276.557 799.999 268.992C799.986 259.716 796.79 253.604 790.487 250.709ZM717.042 247.043H655.446L717.042 161.586V247.043Z" fill="#EB0029"/>
</svg>
